<mxfile host="app.diagrams.net" modified="2024-03-14T08:36:48.330Z" agent="Mozilla/5.0 (Windows NT 10.0; Win64; x64) AppleWebKit/537.36 (KHTML, like Gecko) Chrome/86.0.4240.75 Safari/537.36" etag="mCrwrklN9lkFlowU-RnK" version="21.6.5" type="github">
  <diagram name="第 1 页" id="z9abY0_CvP_dG1NvMjt6">
    <mxGraphModel dx="2713" dy="2602" grid="1" gridSize="10" guides="1" tooltips="1" connect="1" arrows="1" fold="1" page="1" pageScale="1" pageWidth="827" pageHeight="1169" math="0" shadow="0">
      <root>
        <mxCell id="0" />
        <mxCell id="1" parent="0" />
        <mxCell id="IF7lXH0frqbOglrht8Lf-1" value="" style="rounded=0;whiteSpace=wrap;html=1;" vertex="1" parent="1">
          <mxGeometry x="250" y="-20" width="500" height="730" as="geometry" />
        </mxCell>
        <mxCell id="IF7lXH0frqbOglrht8Lf-2" value="" style="whiteSpace=wrap;html=1;" vertex="1" parent="1">
          <mxGeometry x="260" y="140" width="480" height="420" as="geometry" />
        </mxCell>
        <mxCell id="IF7lXH0frqbOglrht8Lf-3" value="" style="rounded=0;whiteSpace=wrap;html=1;" vertex="1" parent="1">
          <mxGeometry x="320" y="600" width="120" height="60" as="geometry" />
        </mxCell>
        <mxCell id="IF7lXH0frqbOglrht8Lf-4" value="运维管理区" style="text;html=1;strokeColor=none;fillColor=none;align=center;verticalAlign=middle;whiteSpace=wrap;rounded=0;" vertex="1" parent="1">
          <mxGeometry x="260" y="140" width="70" height="30" as="geometry" />
        </mxCell>
        <mxCell id="IF7lXH0frqbOglrht8Lf-5" value="" style="rounded=0;whiteSpace=wrap;html=1;" vertex="1" parent="1">
          <mxGeometry x="260" y="570" width="480" height="130" as="geometry" />
        </mxCell>
        <mxCell id="IF7lXH0frqbOglrht8Lf-6" value="边界区" style="text;html=1;strokeColor=none;fillColor=none;align=center;verticalAlign=middle;whiteSpace=wrap;rounded=0;" vertex="1" parent="1">
          <mxGeometry x="260" y="570" width="60" height="30" as="geometry" />
        </mxCell>
        <mxCell id="IF7lXH0frqbOglrht8Lf-7" value="nap-bdgw-apisix（跨内部环境边界去APISIX网关子系统）" style="rounded=0;whiteSpace=wrap;html=1;fillColor=#6a00ff;fontColor=#ffffff;strokeColor=#3700CC;" vertex="1" parent="1">
          <mxGeometry x="440" y="605" width="120" height="60" as="geometry" />
        </mxCell>
        <mxCell id="IF7lXH0frqbOglrht8Lf-9" value="omm-coding-core（持续集成coding子系统）" style="rounded=0;whiteSpace=wrap;html=1;fillColor=#1ba1e2;fontColor=#ffffff;strokeColor=#006EAF;" vertex="1" parent="1">
          <mxGeometry x="360" y="310" width="120" height="60" as="geometry" />
        </mxCell>
        <mxCell id="IF7lXH0frqbOglrht8Lf-10" value="imm-core（持续运维后台子系统）" style="rounded=0;whiteSpace=wrap;html=1;fillColor=#1ba1e2;fontColor=#ffffff;strokeColor=#006EAF;" vertex="1" parent="1">
          <mxGeometry x="360" y="189" width="120" height="60" as="geometry" />
        </mxCell>
        <mxCell id="IF7lXH0frqbOglrht8Lf-11" value="" style="rounded=0;whiteSpace=wrap;html=1;" vertex="1" parent="1">
          <mxGeometry x="519" y="159" width="210" height="390" as="geometry" />
        </mxCell>
        <mxCell id="IF7lXH0frqbOglrht8Lf-12" value="imm-core（小程序部署服务器，imm0-core1）" style="rounded=0;whiteSpace=wrap;html=1;fillColor=#1ba1e2;fontColor=#ffffff;strokeColor=#006EAF;" vertex="1" parent="1">
          <mxGeometry x="570" y="190" width="120" height="60" as="geometry" />
        </mxCell>
        <mxCell id="IF7lXH0frqbOglrht8Lf-13" value="omm-coding-core（coding在C端专区的构建节点池）" style="rounded=0;whiteSpace=wrap;html=1;fillColor=#1ba1e2;fontColor=#ffffff;strokeColor=#006EAF;" vertex="1" parent="1">
          <mxGeometry x="570" y="450" width="120" height="60" as="geometry" />
        </mxCell>
        <mxCell id="IF7lXH0frqbOglrht8Lf-14" value="C端专区" style="text;html=1;strokeColor=none;fillColor=none;align=center;verticalAlign=middle;whiteSpace=wrap;rounded=0;" vertex="1" parent="1">
          <mxGeometry x="519" y="159" width="60" height="30" as="geometry" />
        </mxCell>
        <mxCell id="IF7lXH0frqbOglrht8Lf-15" value="" style="rounded=0;whiteSpace=wrap;html=1;" vertex="1" parent="1">
          <mxGeometry x="260" y="18.480000000000004" width="480" height="110" as="geometry" />
        </mxCell>
        <mxCell id="IF7lXH0frqbOglrht8Lf-16" value="DMZ区" style="text;html=1;strokeColor=none;fillColor=none;align=center;verticalAlign=middle;whiteSpace=wrap;rounded=0;" vertex="1" parent="1">
          <mxGeometry x="260" y="18.480000000000004" width="60" height="30" as="geometry" />
        </mxCell>
        <mxCell id="IF7lXH0frqbOglrht8Lf-17" value="" style="rounded=0;whiteSpace=wrap;html=1;" vertex="1" parent="1">
          <mxGeometry x="270" y="48.480000000000004" width="460" height="70" as="geometry" />
        </mxCell>
        <mxCell id="IF7lXH0frqbOglrht8Lf-18" value="出向" style="text;html=1;strokeColor=none;fillColor=none;align=center;verticalAlign=middle;whiteSpace=wrap;rounded=0;" vertex="1" parent="1">
          <mxGeometry x="260" y="48.480000000000004" width="60" height="30" as="geometry" />
        </mxCell>
        <mxCell id="IF7lXH0frqbOglrht8Lf-19" value="研发ptl" style="text;html=1;strokeColor=none;fillColor=none;align=center;verticalAlign=middle;whiteSpace=wrap;rounded=0;" vertex="1" parent="1">
          <mxGeometry x="248" y="-13.519999999999996" width="60" height="30" as="geometry" />
        </mxCell>
        <mxCell id="IF7lXH0frqbOglrht8Lf-20" value="" style="rounded=0;whiteSpace=wrap;html=1;" vertex="1" parent="1">
          <mxGeometry x="761.5600000000001" y="392" width="440" height="318" as="geometry" />
        </mxCell>
        <mxCell id="IF7lXH0frqbOglrht8Lf-21" value="生产prd" style="text;html=1;strokeColor=none;fillColor=none;align=center;verticalAlign=middle;whiteSpace=wrap;rounded=0;" vertex="1" parent="1">
          <mxGeometry x="758.56" y="388" width="60" height="30" as="geometry" />
        </mxCell>
        <mxCell id="IF7lXH0frqbOglrht8Lf-26" value="APISIX互联网出向代理" style="rounded=0;whiteSpace=wrap;html=1;fillColor=#6a00ff;fontColor=#ffffff;strokeColor=#3700CC;" vertex="1" parent="1">
          <mxGeometry x="440" y="53.480000000000004" width="130" height="60" as="geometry" />
        </mxCell>
        <mxCell id="IF7lXH0frqbOglrht8Lf-37" value="" style="rounded=0;whiteSpace=wrap;html=1;" vertex="1" parent="1">
          <mxGeometry x="771.5600000000001" y="429.5" width="420" height="110" as="geometry" />
        </mxCell>
        <mxCell id="IF7lXH0frqbOglrht8Lf-38" value="APP区" style="text;html=1;strokeColor=none;fillColor=none;align=center;verticalAlign=middle;whiteSpace=wrap;rounded=0;" vertex="1" parent="1">
          <mxGeometry x="761.5600000000001" y="424.5" width="60" height="30" as="geometry" />
        </mxCell>
        <mxCell id="IF7lXH0frqbOglrht8Lf-39" value="mdp-finclip-oms&lt;br&gt;凡泰小程序管理端子系统" style="rounded=0;whiteSpace=wrap;html=1;fillColor=#1ba1e2;fontColor=#ffffff;strokeColor=#006EAF;" vertex="1" parent="1">
          <mxGeometry x="921.5600000000001" y="449.5" width="130" height="60" as="geometry" />
        </mxCell>
        <mxCell id="IF7lXH0frqbOglrht8Lf-40" value="" style="rounded=0;whiteSpace=wrap;html=1;" vertex="1" parent="1">
          <mxGeometry x="250" y="-190" width="950" height="150" as="geometry" />
        </mxCell>
        <mxCell id="IF7lXH0frqbOglrht8Lf-41" value="B端" style="text;html=1;strokeColor=none;fillColor=none;align=center;verticalAlign=middle;whiteSpace=wrap;rounded=0;" vertex="1" parent="1">
          <mxGeometry x="240" y="-190" width="60" height="30" as="geometry" />
        </mxCell>
        <mxCell id="IF7lXH0frqbOglrht8Lf-42" value="外部小程序平台" style="rounded=0;whiteSpace=wrap;html=1;fillColor=#f0a30a;fontColor=#FFFFFF;strokeColor=#BD7000;" vertex="1" parent="1">
          <mxGeometry x="690" y="-145" width="120" height="60" as="geometry" />
        </mxCell>
        <mxCell id="IF7lXH0frqbOglrht8Lf-44" value="" style="endArrow=classic;html=1;rounded=0;exitX=0.5;exitY=0;exitDx=0;exitDy=0;entryX=0.399;entryY=0.981;entryDx=0;entryDy=0;fillColor=#1ba1e2;strokeColor=#006EAF;entryPerimeter=0;" edge="1" parent="1" source="IF7lXH0frqbOglrht8Lf-7" target="IF7lXH0frqbOglrht8Lf-9">
          <mxGeometry width="50" height="50" relative="1" as="geometry">
            <mxPoint x="510" y="615" as="sourcePoint" />
            <mxPoint x="350" y="520" as="targetPoint" />
          </mxGeometry>
        </mxCell>
        <mxCell id="IF7lXH0frqbOglrht8Lf-73" value="拉代码、装依赖、推拉制品" style="edgeLabel;html=1;align=center;verticalAlign=middle;resizable=0;points=[];" vertex="1" connectable="0" parent="IF7lXH0frqbOglrht8Lf-44">
          <mxGeometry x="0.6166" y="-1" relative="1" as="geometry">
            <mxPoint as="offset" />
          </mxGeometry>
        </mxCell>
        <mxCell id="IF7lXH0frqbOglrht8Lf-45" value="" style="endArrow=classic;html=1;rounded=0;exitX=0.5;exitY=1;exitDx=0;exitDy=0;fillColor=#1ba1e2;strokeColor=#006EAF;entryX=0.5;entryY=0;entryDx=0;entryDy=0;" edge="1" parent="1" source="IF7lXH0frqbOglrht8Lf-13" target="IF7lXH0frqbOglrht8Lf-7">
          <mxGeometry width="50" height="50" relative="1" as="geometry">
            <mxPoint x="510" y="615" as="sourcePoint" />
            <mxPoint x="500" y="600" as="targetPoint" />
          </mxGeometry>
        </mxCell>
        <mxCell id="IF7lXH0frqbOglrht8Lf-75" value="拉代码&lt;br&gt;装依赖&lt;br&gt;推拉制品" style="edgeLabel;html=1;align=center;verticalAlign=middle;resizable=0;points=[];" vertex="1" connectable="0" parent="IF7lXH0frqbOglrht8Lf-45">
          <mxGeometry x="-0.2503" y="-4" relative="1" as="geometry">
            <mxPoint as="offset" />
          </mxGeometry>
        </mxCell>
        <mxCell id="IF7lXH0frqbOglrht8Lf-46" value="" style="rounded=0;whiteSpace=wrap;html=1;" vertex="1" parent="1">
          <mxGeometry x="540" y="280" width="170" height="120" as="geometry" />
        </mxCell>
        <mxCell id="IF7lXH0frqbOglrht8Lf-47" value="nap-bdgw-apisix（跨内部环境边界区APISIX内部网关子系统）" style="rounded=0;whiteSpace=wrap;html=1;fillColor=#1ba1e2;fontColor=#ffffff;strokeColor=#006EAF;" vertex="1" parent="1">
          <mxGeometry x="570" y="310" width="120" height="60" as="geometry" />
        </mxCell>
        <mxCell id="IF7lXH0frqbOglrht8Lf-48" value="边界区" style="text;html=1;strokeColor=none;fillColor=none;align=center;verticalAlign=middle;whiteSpace=wrap;rounded=0;" vertex="1" parent="1">
          <mxGeometry x="540" y="275" width="60" height="30" as="geometry" />
        </mxCell>
        <mxCell id="IF7lXH0frqbOglrht8Lf-49" value="" style="endArrow=classic;html=1;rounded=0;exitX=0.5;exitY=1;exitDx=0;exitDy=0;fillColor=#1ba1e2;strokeColor=#006EAF;" edge="1" parent="1" source="IF7lXH0frqbOglrht8Lf-47" target="IF7lXH0frqbOglrht8Lf-13">
          <mxGeometry width="50" height="50" relative="1" as="geometry">
            <mxPoint x="640" y="520" as="sourcePoint" />
            <mxPoint x="510" y="615" as="targetPoint" />
          </mxGeometry>
        </mxCell>
        <mxCell id="IF7lXH0frqbOglrht8Lf-78" value="执行构建" style="edgeLabel;html=1;align=center;verticalAlign=middle;resizable=0;points=[];" vertex="1" connectable="0" parent="IF7lXH0frqbOglrht8Lf-49">
          <mxGeometry x="0.0095" relative="1" as="geometry">
            <mxPoint as="offset" />
          </mxGeometry>
        </mxCell>
        <mxCell id="IF7lXH0frqbOglrht8Lf-50" value="" style="endArrow=classic;html=1;rounded=0;exitX=0.5;exitY=0;exitDx=0;exitDy=0;fillColor=#1ba1e2;strokeColor=#006EAF;entryX=0.5;entryY=1;entryDx=0;entryDy=0;" edge="1" parent="1" source="IF7lXH0frqbOglrht8Lf-47" target="IF7lXH0frqbOglrht8Lf-12">
          <mxGeometry width="50" height="50" relative="1" as="geometry">
            <mxPoint x="640" y="380" as="sourcePoint" />
            <mxPoint x="640" y="460" as="targetPoint" />
          </mxGeometry>
        </mxCell>
        <mxCell id="IF7lXH0frqbOglrht8Lf-79" value="执行部署" style="edgeLabel;html=1;align=center;verticalAlign=middle;resizable=0;points=[];" vertex="1" connectable="0" parent="IF7lXH0frqbOglrht8Lf-50">
          <mxGeometry x="-0.1886" y="1" relative="1" as="geometry">
            <mxPoint as="offset" />
          </mxGeometry>
        </mxCell>
        <mxCell id="IF7lXH0frqbOglrht8Lf-51" value="" style="endArrow=classic;html=1;rounded=0;exitX=0;exitY=0.5;exitDx=0;exitDy=0;fillColor=#1ba1e2;strokeColor=#006EAF;entryX=0.5;entryY=0;entryDx=0;entryDy=0;" edge="1" parent="1" source="IF7lXH0frqbOglrht8Lf-12" target="IF7lXH0frqbOglrht8Lf-7">
          <mxGeometry width="50" height="50" relative="1" as="geometry">
            <mxPoint x="640" y="320" as="sourcePoint" />
            <mxPoint x="640" y="260" as="targetPoint" />
          </mxGeometry>
        </mxCell>
        <mxCell id="IF7lXH0frqbOglrht8Lf-74" value="拉制品" style="edgeLabel;html=1;align=center;verticalAlign=middle;resizable=0;points=[];" vertex="1" connectable="0" parent="IF7lXH0frqbOglrht8Lf-51">
          <mxGeometry x="0.2403" relative="1" as="geometry">
            <mxPoint as="offset" />
          </mxGeometry>
        </mxCell>
        <mxCell id="IF7lXH0frqbOglrht8Lf-52" value="" style="endArrow=classic;html=1;rounded=0;exitX=1;exitY=0.5;exitDx=0;exitDy=0;fillColor=#1ba1e2;strokeColor=#006EAF;entryX=0;entryY=0.5;entryDx=0;entryDy=0;" edge="1" parent="1" source="IF7lXH0frqbOglrht8Lf-10" target="IF7lXH0frqbOglrht8Lf-47">
          <mxGeometry width="50" height="50" relative="1" as="geometry">
            <mxPoint x="580" y="230" as="sourcePoint" />
            <mxPoint x="510" y="615" as="targetPoint" />
          </mxGeometry>
        </mxCell>
        <mxCell id="IF7lXH0frqbOglrht8Lf-76" value="执行部署" style="edgeLabel;html=1;align=center;verticalAlign=middle;resizable=0;points=[];" vertex="1" connectable="0" parent="IF7lXH0frqbOglrht8Lf-52">
          <mxGeometry x="-0.4836" y="3" relative="1" as="geometry">
            <mxPoint as="offset" />
          </mxGeometry>
        </mxCell>
        <mxCell id="IF7lXH0frqbOglrht8Lf-53" value="" style="endArrow=classic;html=1;rounded=0;exitX=1;exitY=0.5;exitDx=0;exitDy=0;fillColor=#1ba1e2;strokeColor=#006EAF;entryX=0;entryY=0.5;entryDx=0;entryDy=0;" edge="1" parent="1" source="IF7lXH0frqbOglrht8Lf-9" target="IF7lXH0frqbOglrht8Lf-47">
          <mxGeometry width="50" height="50" relative="1" as="geometry">
            <mxPoint x="490" y="229" as="sourcePoint" />
            <mxPoint x="580" y="350" as="targetPoint" />
          </mxGeometry>
        </mxCell>
        <mxCell id="IF7lXH0frqbOglrht8Lf-77" value="执行构建" style="edgeLabel;html=1;align=center;verticalAlign=middle;resizable=0;points=[];" vertex="1" connectable="0" parent="IF7lXH0frqbOglrht8Lf-53">
          <mxGeometry x="-0.385" relative="1" as="geometry">
            <mxPoint as="offset" />
          </mxGeometry>
        </mxCell>
        <mxCell id="IF7lXH0frqbOglrht8Lf-54" value="" style="endArrow=classic;html=1;rounded=0;exitX=0.5;exitY=0;exitDx=0;exitDy=0;fillColor=#1ba1e2;strokeColor=#006EAF;entryX=0.5;entryY=1;entryDx=0;entryDy=0;" edge="1" parent="1" source="IF7lXH0frqbOglrht8Lf-12" target="IF7lXH0frqbOglrht8Lf-26">
          <mxGeometry width="50" height="50" relative="1" as="geometry">
            <mxPoint x="490" y="350" as="sourcePoint" />
            <mxPoint x="580" y="350" as="targetPoint" />
            <Array as="points" />
          </mxGeometry>
        </mxCell>
        <mxCell id="IF7lXH0frqbOglrht8Lf-80" value="外发测试、生产小程序" style="edgeLabel;html=1;align=center;verticalAlign=middle;resizable=0;points=[];" vertex="1" connectable="0" parent="IF7lXH0frqbOglrht8Lf-54">
          <mxGeometry x="0.211" y="-3" relative="1" as="geometry">
            <mxPoint as="offset" />
          </mxGeometry>
        </mxCell>
        <mxCell id="IF7lXH0frqbOglrht8Lf-55" value="" style="endArrow=classic;html=1;rounded=0;exitX=0.5;exitY=0;exitDx=0;exitDy=0;fillColor=#1ba1e2;strokeColor=#006EAF;entryX=0.5;entryY=1;entryDx=0;entryDy=0;" edge="1" parent="1" source="IF7lXH0frqbOglrht8Lf-26" target="IF7lXH0frqbOglrht8Lf-42">
          <mxGeometry width="50" height="50" relative="1" as="geometry">
            <mxPoint x="640" y="200" as="sourcePoint" />
            <mxPoint x="515" y="5" as="targetPoint" />
          </mxGeometry>
        </mxCell>
        <mxCell id="IF7lXH0frqbOglrht8Lf-81" value="域名白名单" style="edgeLabel;html=1;align=center;verticalAlign=middle;resizable=0;points=[];" vertex="1" connectable="0" parent="IF7lXH0frqbOglrht8Lf-55">
          <mxGeometry x="0.0178" y="5" relative="1" as="geometry">
            <mxPoint as="offset" />
          </mxGeometry>
        </mxCell>
        <mxCell id="IF7lXH0frqbOglrht8Lf-69" value="" style="rounded=0;whiteSpace=wrap;html=1;" vertex="1" parent="1">
          <mxGeometry x="771.5600000000001" y="567" width="420" height="130" as="geometry" />
        </mxCell>
        <mxCell id="IF7lXH0frqbOglrht8Lf-68" value="nap-bdgw-apisix（跨内部环境边界去APISIX网关子系统）" style="rounded=0;whiteSpace=wrap;html=1;fillColor=#6a00ff;fontColor=#ffffff;strokeColor=#3700CC;" vertex="1" parent="1">
          <mxGeometry x="901.5600000000001" y="617" width="120" height="60" as="geometry" />
        </mxCell>
        <mxCell id="IF7lXH0frqbOglrht8Lf-70" value="边界区" style="text;html=1;strokeColor=none;fillColor=none;align=center;verticalAlign=middle;whiteSpace=wrap;rounded=0;" vertex="1" parent="1">
          <mxGeometry x="771.5600000000001" y="567" width="60" height="30" as="geometry" />
        </mxCell>
        <mxCell id="IF7lXH0frqbOglrht8Lf-56" value="" style="endArrow=classic;html=1;rounded=0;exitX=0.5;exitY=1;exitDx=0;exitDy=0;fillColor=#008a00;strokeColor=#005700;entryX=0.5;entryY=0;entryDx=0;entryDy=0;" edge="1" parent="1" source="IF7lXH0frqbOglrht8Lf-12" target="IF7lXH0frqbOglrht8Lf-68">
          <mxGeometry width="50" height="50" relative="1" as="geometry">
            <mxPoint x="640" y="200" as="sourcePoint" />
            <mxPoint x="1030" y="100" as="targetPoint" />
          </mxGeometry>
        </mxCell>
        <mxCell id="IF7lXH0frqbOglrht8Lf-82" value="部署凡泰测试、生产小程序" style="edgeLabel;html=1;align=center;verticalAlign=middle;resizable=0;points=[];" vertex="1" connectable="0" parent="IF7lXH0frqbOglrht8Lf-56">
          <mxGeometry x="-0.1382" y="-1" relative="1" as="geometry">
            <mxPoint x="-22" y="-48" as="offset" />
          </mxGeometry>
        </mxCell>
        <mxCell id="IF7lXH0frqbOglrht8Lf-71" value="" style="endArrow=classic;html=1;rounded=0;exitX=0.5;exitY=0;exitDx=0;exitDy=0;fillColor=#008a00;strokeColor=#005700;entryX=0.5;entryY=1;entryDx=0;entryDy=0;" edge="1" parent="1" source="IF7lXH0frqbOglrht8Lf-68" target="IF7lXH0frqbOglrht8Lf-39">
          <mxGeometry width="50" height="50" relative="1" as="geometry">
            <mxPoint x="591.5600000000001" y="202" as="sourcePoint" />
            <mxPoint x="971.5600000000001" y="627" as="targetPoint" />
          </mxGeometry>
        </mxCell>
        <mxCell id="IF7lXH0frqbOglrht8Lf-83" value="部署凡泰测试、生产小程序" style="edgeLabel;html=1;align=center;verticalAlign=middle;resizable=0;points=[];" vertex="1" connectable="0" parent="IF7lXH0frqbOglrht8Lf-71">
          <mxGeometry x="0.1598" y="-1" relative="1" as="geometry">
            <mxPoint as="offset" />
          </mxGeometry>
        </mxCell>
        <mxCell id="IF7lXH0frqbOglrht8Lf-89" value="子系统" style="rounded=0;whiteSpace=wrap;html=1;fillColor=#1ba1e2;fontColor=#ffffff;strokeColor=#006EAF;" vertex="1" parent="1">
          <mxGeometry x="110" y="-146.51999999999998" width="120" height="60" as="geometry" />
        </mxCell>
        <mxCell id="IF7lXH0frqbOglrht8Lf-90" value="外部系统" style="rounded=0;whiteSpace=wrap;html=1;fillColor=#f0a30a;fontColor=#000000;strokeColor=#BD7000;" vertex="1" parent="1">
          <mxGeometry x="110" y="-66.52" width="120" height="60" as="geometry" />
        </mxCell>
        <mxCell id="IF7lXH0frqbOglrht8Lf-91" value="网关代理" style="rounded=0;whiteSpace=wrap;html=1;fillColor=#6a00ff;fontColor=#ffffff;strokeColor=#3700CC;" vertex="1" parent="1">
          <mxGeometry x="110" y="13.480000000000004" width="120" height="60" as="geometry" />
        </mxCell>
        <mxCell id="IF7lXH0frqbOglrht8Lf-92" value="新增" style="rounded=0;whiteSpace=wrap;html=1;fillColor=#008a00;fontColor=#ffffff;strokeColor=#005700;" vertex="1" parent="1">
          <mxGeometry x="110" y="93.48" width="120" height="60" as="geometry" />
        </mxCell>
        <mxCell id="IF7lXH0frqbOglrht8Lf-93" value="" style="endArrow=classic;html=1;rounded=0;fillColor=#1ba1e2;strokeColor=#006EAF;" edge="1" parent="1">
          <mxGeometry width="50" height="50" relative="1" as="geometry">
            <mxPoint x="140" y="233.48000000000002" as="sourcePoint" />
            <mxPoint x="190" y="183.48000000000002" as="targetPoint" />
          </mxGeometry>
        </mxCell>
        <mxCell id="IF7lXH0frqbOglrht8Lf-94" value="请求" style="edgeLabel;html=1;align=center;verticalAlign=middle;resizable=0;points=[];" vertex="1" connectable="0" parent="IF7lXH0frqbOglrht8Lf-93">
          <mxGeometry x="-0.1371" y="10" relative="1" as="geometry">
            <mxPoint x="16" y="-2" as="offset" />
          </mxGeometry>
        </mxCell>
        <mxCell id="IF7lXH0frqbOglrht8Lf-95" value="" style="endArrow=classic;html=1;rounded=0;fillColor=#008a00;strokeColor=#005700;" edge="1" parent="1">
          <mxGeometry width="50" height="50" relative="1" as="geometry">
            <mxPoint x="150" y="313.48" as="sourcePoint" />
            <mxPoint x="200" y="263.48" as="targetPoint" />
          </mxGeometry>
        </mxCell>
        <mxCell id="IF7lXH0frqbOglrht8Lf-96" value="新增请求" style="edgeLabel;html=1;align=center;verticalAlign=middle;resizable=0;points=[];" vertex="1" connectable="0" parent="IF7lXH0frqbOglrht8Lf-95">
          <mxGeometry x="-0.1371" y="-6" relative="1" as="geometry">
            <mxPoint x="1" y="-13" as="offset" />
          </mxGeometry>
        </mxCell>
      </root>
    </mxGraphModel>
  </diagram>
</mxfile>
